:SAMPLES-PER-SECOND 30
:FULLY-SPECIFIED
:DEGREES
50
root  3.45071 40.3333 0.131352 -8.11337 -74.481 3.3512
RightUpLeg  6.86404 -8.88757 -7.80252
RightLeg  4.29168 -15.2342 -1.66842
RightFoot  -1.40259 -0.771904 8.75057
RightToes  7.56698e-010 0 -3.6325e-017
Spine  2.78873 1.37546 4.11567
Spine1  4.34568 2.24307 -3.15494
HEad  -0.602981 41.3322 -6.01556
LeftShoulder1  2.35801 -5.08578 -21.0718
LeftArm  -5.56719 5.48371 -52.2772
LeftForeArm  11.6915 -1.45966 -14.6201
LeftHand  -0.397701 2.93927 18.5959
RightShoulder  1.55368 2.82846 18.0297
RightArm  -17.3345 -1.96698 57.1236
RightForeArm  24.9 -7.93138 11.6909
RightHand  -0.263052 -3.10797 -12.8557
LeftUpLeg  1.39113 6.71839 5.48345
LeftLeg  3.48592 -6.20476 1.69352
LeftFoot  -0.0914714 0.852141 -8.63632
LeftToes  -3.13779e-010 -2.47553e-011 -5.36621e-011
51
root  3.38646 40.3425 0.500817 -9.70064 -74.4837 5.00423
RightUpLeg  7.16904 -9.08834 -8.83101
RightLeg  4.10259 -14.7839 -1.83519
RightFoot  -1.23895 -0.835741 9.33901
RightToes  7.56698e-010 0 -3.6325e-017
Spine  2.61816 1.4209 3.97769
Spine1  4.23689 2.38899 -3.80814
HEad  -1.00788 41.879 -6.55835
LeftShoulder1  2.35318 -5.02527 -21.219
LeftArm  -6.38221 5.81733 -51.3224
LeftForeArm  11.3792 -0.941424 -14.5437
LeftHand  -0.328195 3.41883 18.9777
RightShoulder  1.58085 2.88399 18.2602
RightArm  -16.3169 -4.27647 56.2171
RightForeArm  33.1791 -7.77837 12.1399
RightHand  -0.138987 -3.89557 -9.78427
LeftUpLeg  1.7011 6.57254 4.59043
LeftLeg  3.4646 -5.84719 1.42889
LeftFoot  -0.285946 0.773866 -7.97097
LeftToes  -3.13779e-010 -2.47553e-011 -5.36621e-011
52
root  3.3287 40.3367 0.889493 -11.182 -74.494 6.49721
RightUpLeg  7.4371 -9.2634 -9.83496
RightLeg  4.07608 -14.3815 -2.08167
RightFoot  -1.09872 -0.909259 10.0372
RightToes  7.56698e-010 0 -3.6325e-017
Spine  2.55697 1.30304 3.89476
Spine1  4.04765 2.38172 -4.56422
HEad  -1.36233 42.4968 -7.00057
LeftShoulder1  2.32577 -4.96779 -21.0732
LeftArm  -7.28539 6.44988 -50.7176
LeftForeArm  11.1789 -0.371886 -14.4304
LeftHand  -0.258952 3.86814 19.2455
RightShoulder  1.58274 2.84999 18.4364
RightArm  -14.6811 -7.04876 55.4068
RightForeArm  38.7267 -7.45526 12.6871
RightHand  -0.0997874 -4.15002 -7.89988
LeftUpLeg  1.90438 6.34176 3.66136
LeftLeg  3.75249 -5.42827 1.23833
LeftFoot  -0.633261 0.689276 -7.30837
LeftToes  -3.13779e-010 -2.47553e-011 -5.36621e-011
53
root  3.27967 40.3124 1.29213 -12.8331 -74.5857 8.07448
RightUpLeg  7.62021 -9.4692 -10.886
RightLeg  4.32743 -13.8314 -2.4059
RightFoot  -1.05807 -0.973056 10.7044
RightToes  7.56698e-010 0 -3.6325e-017
Spine  2.63207 1.07964 3.66156
Spine1  3.80581 2.22024 -5.11825
HEad  -1.49097 43.1776 -7.36397
LeftShoulder1  2.29087 -4.89855 -20.8714
LeftArm  -8.06834 7.40031 -50.3603
LeftForeArm  10.8989 -0.0216823 -14.3004
LeftHand  -0.201582 4.21762 19.2554
RightShoulder  1.55535 2.76243 18.3404
RightArm  -12.7669 -9.785 54.703
RightForeArm  39.6909 -5.74082 13.4897
RightHand  -0.111316 -3.98539 -7.85924
LeftUpLeg  2.04097 6.0023 2.64625
LeftLeg  4.3594 -4.83741 1.137
LeftFoot  -1.103 0.598002 -6.59776
LeftToes  -3.13779e-010 -2.47553e-011 -5.36621e-011
54
root  3.24631 40.2709 1.6926 -14.8922 -74.9041 10.0938
RightUpLeg  7.44094 -9.60229 -11.9944
RightLeg  5.03712 -12.9982 -2.83128
RightFoot  -1.17425 -1.02308 11.3764
RightToes  7.56698e-010 0 -3.6325e-017
Spine  2.73718 0.876405 3.20059
Spine1  3.56389 2.02271 -5.53141
HEad  -1.37185 43.5877 -7.61001
LeftShoulder1  2.28043 -4.87463 -20.8213
LeftArm  -8.57943 8.50637 -50.0455
LeftForeArm  10.6289 0.0913381 -14.2022
LeftHand  -0.161964 4.45309 19.1405
RightShoulder  1.52926 2.70466 18.1357
RightArm  -10.7892 -12.0823 53.9209
RightForeArm  36.6525 -3.63398 14.2273
RightHand  -0.162534 -3.48508 -9.07365
LeftUpLeg  2.0986 5.75108 1.60259
LeftLeg  5.09666 -4.06108 0.974158
LeftFoot  -1.67072 0.506344 -5.86409
LeftToes  -3.13779e-010 -2.47553e-011 -5.36621e-011
